<?xml version="1.0" encoding="UTF-8" standalone="no"?>
<!-- Generator: Gravit.io -->
<svg xmlns="http://www.w3.org/2000/svg" xmlns:xlink="http://www.w3.org/1999/xlink" style="isolation:isolate" viewBox="361.236 376.6 57.529 83.943" width="57.529pt" height="83.943pt"><path d=" M 403.273 457.503 L 364.185 443.33 L 364.185 405.762 L 396.527 393.28 C 397.096 393.061 397.471 392.514 397.471 391.904 L 397.471 383.725 L 405.771 380.275 L 405.771 436.055 L 397.165 432.912 L 397.165 403.339 C 397.165 402.853 396.925 402.397 396.523 402.122 C 396.12 401.846 395.61 401.786 395.155 401.964 L 374.262 410.068 C 373.695 410.287 373.32 410.834 373.32 411.444 L 373.331 439.008 C 373.333 439.631 373.724 440.187 374.312 440.397 L 412.86 454.148 L 403.273 457.503 Z  M 394.214 431.837 L 387.585 429.418 L 387.567 420.525 L 394.214 418.099 L 394.214 431.837 Z  M 415.814 452.069 L 376.282 437.967 L 376.271 412.452 L 394.214 405.493 L 394.208 414.961 L 385.585 418.108 C 385.001 418.321 384.614 418.875 384.614 419.496 L 384.637 430.453 C 384.639 431.071 385.025 431.624 385.607 431.836 L 406.74 439.549 C 406.855 439.59 406.971 439.616 407.088 439.629 C 407.439 439.667 407.796 439.579 408.093 439.372 C 408.488 439.096 408.722 438.645 408.722 438.163 L 408.722 380.316 L 415.814 383.403 L 415.814 452.069 Z  M 418.765 382.436 C 418.765 381.849 418.416 381.318 417.878 381.083 L 407.835 376.712 C 407.82 376.705 407.801 376.703 407.786 376.697 C 407.727 376.674 407.666 376.66 407.606 376.645 C 407.55 376.63 407.494 376.614 407.437 376.607 C 407.374 376.599 407.313 376.6 407.252 376.6 C 407.193 376.6 407.136 376.598 407.08 376.604 C 407.016 376.612 406.956 376.628 406.895 376.643 C 406.839 376.656 406.783 376.668 406.728 376.689 C 406.714 376.695 406.697 376.696 406.68 376.702 L 395.429 381.378 C 394.879 381.607 394.52 382.145 394.52 382.74 L 394.52 390.893 L 362.178 403.374 C 361.611 403.594 361.236 404.141 361.236 404.75 L 361.236 444.364 C 361.236 444.986 361.624 445.539 362.208 445.751 L 402.761 460.455 C 402.924 460.514 403.093 460.543 403.264 460.543 C 403.429 460.543 403.593 460.516 403.752 460.461 L 417.777 455.554 C 417.846 455.529 417.903 455.486 417.967 455.451 C 418.024 455.422 418.085 455.404 418.14 455.366 C 418.146 455.361 418.153 455.354 418.159 455.348 C 418.188 455.327 418.21 455.301 418.238 455.279 C 418.316 455.211 418.387 455.139 418.451 455.059 C 418.478 455.023 418.502 454.986 418.525 454.947 C 418.577 454.866 418.619 454.782 418.654 454.693 C 418.671 454.653 418.688 454.614 418.7 454.572 C 418.736 454.446 418.76 454.316 418.761 454.181 C 418.761 454.176 418.765 454.171 418.765 454.166 C 418.765 454.165 418.764 454.164 418.764 454.164 C 418.764 454.163 418.765 454.162 418.765 454.161 L 418.765 382.436 Z " fill="rgb(254,254,254)"/></svg>